<svg width="32" height="32" viewBox="0 0 32 32" fill="none" xmlns="http://www.w3.org/2000/svg">
  <defs>
    <linearGradient id="gradient" x1="0%" y1="0%" x2="100%" y2="100%">
      <stop offset="0%" style="stop-color:#16A34A;stop-opacity:1" />
      <stop offset="100%" style="stop-color:#059669;stop-opacity:1" />
    </linearGradient>
  </defs>

  <!-- Background circle -->
  <circle cx="16" cy="16" r="16" fill="white"/>

  <!-- GitHub logo inspired design -->
  <path d="M16 2C8.268 2 2 8.268 2 16c0 6.668 4.48 12.272 10.592 13.976.768.144 1.056-.336 1.056-.736 0-.368-.016-1.504-.016-2.736-4.336.8-5.248-1.856-5.248-1.856-.704-1.824-1.744-2.304-1.744-2.304-1.44-.976.096-.976.096-.976 1.584.112 2.416 1.632 2.416 1.632 1.408 2.416 3.696 1.728 4.592 1.312.144-1.008.544-1.712.992-2.112-3.504-.4-7.2-1.776-7.2-7.904 0-1.744.624-3.168 1.632-4.272-.16-.4-.704-2.016.144-4.192 0 0 1.344-.416 4.416 1.632 1.28-.352 2.656-.528 4.032-.528 1.376 0 2.752.176 4.032.528 3.072-2.064 4.416-1.632 4.416-1.632.848 2.176.304 3.792.144 4.192 1.008 1.104 1.632 2.528 1.632 4.272 0 6.144-3.696 7.504-7.2 7.904.576.496 1.056 1.456 1.056 2.944 0 2.112-.016 3.808-.016 4.336 0 .4.288.896 1.056.736C23.52 28.272 28 22.656 28 16 28 8.268 21.732 2 16 2z" fill="url(#gradient)"/>

  <!-- Magnifying glass overlay to indicate search/explorer -->
  <circle cx="22" cy="22" r="5" fill="white" stroke="url(#gradient)" stroke-width="2"/>
  <line x1="25.5" y1="25.5" x2="29" y2="29" stroke="url(#gradient)" stroke-width="2" stroke-linecap="round"/>
</svg>